# xmcd
#
# Track frame offsets:
#	150
#	14837
#	35732
#	51320
#	67378
#	84586
#	98319
#	110557
#	125281
#	139956
#	152431
#	161289
#	174363
#	185770
#	202825
#	214222
#	228850
#	244947
#	261058
#	274702
#
# Disc length: 3823 seconds
#
# Revision: 0
# Processed by: cddbd v1.5.2PL0 Copyright (c) Steve Scherf et al.
# Submitted via: audiograbber 1.83.01
#
DISCID=1b0eed14
DTITLE=Mr. John Kampen and friends - Songs for Carsten
DYEAR=1900
DGENRE=Country
TTITLE0=Zusammenstehn-Curly and John
TTITLE1=Streets of heaven-Mel D
TTITLE2=Mein freund Winnetou-Mr. John Kampen
TTITLE3=Forever and Ever,  Amen-Smokie J. Jones
TTITLE4=Wie die Sonne, der Mond und der Wind-Angie and John
TTITLE5=Blaue Augen,  blondes Haar-Buddy 01
TTITLE6=Good Year for the roses-Clive John
TTITLE7=The Banks of the Ohio-two of a kind
TTITLE8=Wenn Träume Flügel kriegen-Mr. John Kampen
TTITLE9=Sideways-Smokie J. Jones
TTITLE10=Sechs Tage in der Woche-Joe Harper
TTITLE11=Devill Woman-Mr. John Kampen and Green Country
TTITLE12=Why'd you come in here looking like that-Mel D
TTITLE13=Sierra Madre del Sur-Bonnie and John
TTITLE14=Honky Tonk Moon-Joe Harper
TTITLE15=If we´re not back in Love by monday-Smokie J. Jones
TTITLE16=Blame it on Your heart-Crab Shack
TTITLE17=Ich steh´auf Countrymusic-Buddy 01
TTITLE18=Take it easy-Joe Harper
TTITLE19=Wer Liebe sucht-Curly and John
EXTD=
EXTT0=
EXTT1=
EXTT2=
EXTT3=
EXTT4=
EXTT5=
EXTT6=
EXTT7=
EXTT8=
EXTT9=
EXTT10=
EXTT11=
EXTT12=
EXTT13=
EXTT14=
EXTT15=
EXTT16=
EXTT17=
EXTT18=
EXTT19=
PLAYORDER=
